<?xml version="1.0" encoding="UTF-8"?>
<svg xmlns="http://www.w3.org/2000/svg" xmlns:xlink="http://www.w3.org/1999/xlink" viewBox="0 0 64 64" width="64px" height="64px">
<g id="surface12946075">
<path style="fill-rule:nonzero;fill:rgb(0.392157%,51.764709%,66.274512%);fill-opacity:1;stroke-width:9;stroke-linecap:butt;stroke-linejoin:round;stroke:rgb(0.784314%,32.549021%,49.019608%);stroke-opacity:1;stroke-miterlimit:10;" d="M 77.528474 11.28447 C 79.820769 11.28447 81.559369 13.034144 81.559369 15.315365 L 81.559369 27.684899 L 83.718777 27.684899 C 85.999999 27.684899 87.749673 29.4235 87.749673 31.715795 C 87.749673 33.997016 85.999999 35.746691 83.718777 35.746691 L 36.820858 35.746691 C 34.672523 35.746691 32.789962 33.997016 32.789962 31.715795 C 32.789962 29.4235 34.539637 27.684899 36.820858 27.684899 L 38.969192 27.684899 L 38.969192 15.315365 C 38.969192 13.034144 40.718867 11.28447 43.000088 11.28447 Z M 47.030983 27.552013 L 66.786801 27.552013 L 66.786801 19.213374 L 47.030983 19.213374 Z M 85.867112 39.910473 C 86.941279 39.910473 88.015446 40.309133 88.690954 41.117527 L 123.219339 76.055646 C 128.457289 81.426482 131.281131 88.414106 131.281131 95.944351 L 131.281131 130.33985 C 131.281131 139.210035 124.027733 146.463432 115.157548 146.463432 L 49.987712 146.463432 C 41.117527 146.463432 33.864129 139.210035 33.864129 130.33985 L 33.864129 43.941368 C 33.864129 41.660147 35.613804 39.910473 37.895025 39.910473 Z M 41.925921 130.33985 C 41.925921 134.780479 45.547082 138.401641 49.854825 138.401641 L 109.376978 138.401641 C 111.259539 136.253307 112.466593 133.429465 112.466593 130.33985 L 112.466593 95.944351 C 112.466593 89.632234 109.919599 83.44193 105.478969 78.879488 L 75.114366 47.972264 L 41.925921 47.972264 Z M 91.503721 95.811464 C 92.987623 97.959799 93.66313 100.373906 93.796016 102.799088 C 93.796016 109.376978 88.558067 114.758888 82.10199 114.758888 C 75.656986 114.758888 70.407963 109.376978 70.407963 102.799088 C 70.407963 100.373906 71.08347 98.092685 72.423411 96.077238 L 72.567371 95.944351 L 82.10199 82.910384 Z M 91.503721 95.811464 " transform="matrix(0.352744,0,0,0.352744,1.664,1.664)"/>
<path style=" stroke:none;fill-rule:nonzero;fill:rgb(0.392157%,51.764709%,66.274512%);fill-opacity:1;" d="M 16.832031 5.644531 C 16.027344 5.644531 15.410156 6.261719 15.410156 7.066406 L 15.410156 11.429688 L 14.652344 11.429688 C 13.847656 11.429688 13.230469 12.042969 13.230469 12.851562 C 13.230469 13.65625 13.894531 14.273438 14.652344 14.273438 L 31.195312 14.273438 C 32 14.273438 32.617188 13.65625 32.617188 12.851562 C 32.617188 12.042969 32 11.429688 31.195312 11.429688 L 30.433594 11.429688 L 30.433594 7.066406 C 30.433594 6.261719 29.820312 5.644531 29.011719 5.644531 Z M 18.253906 8.441406 L 25.222656 8.441406 L 25.222656 11.382812 L 18.253906 11.382812 Z M 15.03125 15.742188 C 14.226562 15.742188 13.609375 16.359375 13.609375 17.164062 L 13.609375 47.640625 C 13.609375 50.769531 16.167969 53.328125 19.296875 53.328125 L 42.285156 53.328125 C 45.414062 53.328125 47.972656 50.769531 47.972656 47.640625 L 47.972656 35.507812 C 47.972656 32.851562 46.976562 30.386719 45.128906 28.492188 L 32.949219 16.167969 C 32.710938 15.882812 32.332031 15.742188 31.953125 15.742188 Z M 16.453125 18.585938 L 28.160156 18.585938 L 38.871094 29.488281 C 40.4375 31.097656 41.335938 33.28125 41.335938 35.507812 L 41.335938 47.640625 C 41.335938 48.730469 40.910156 49.726562 40.246094 50.484375 L 19.25 50.484375 C 17.730469 50.484375 16.453125 49.207031 16.453125 47.640625 Z M 30.625 30.910156 L 27.261719 35.507812 L 27.210938 35.554688 C 26.738281 36.265625 26.5 37.070312 26.5 37.925781 C 26.5 40.246094 28.351562 42.144531 30.625 42.144531 C 32.902344 42.144531 34.75 40.246094 34.75 37.925781 C 34.703125 37.070312 34.464844 36.21875 33.941406 35.460938 Z M 30.625 30.910156 "/>
</g>
</svg>
